<mxfile host="app.diagrams.net" modified="2024-01-23T01:55:57.988Z" agent="Mozilla/5.0 (Windows NT 10.0; Win64; x64) AppleWebKit/537.36 (KHTML, like Gecko) Chrome/120.0.0.0 Safari/537.36" etag="jlAxN06V9fyDN4kgCTO6" version="22.1.21" type="github">
  <diagram name="Page-1" id="tAVkcQCNe_Dqa0Qz7SXH">
    <mxGraphModel dx="880" dy="468" grid="1" gridSize="10" guides="1" tooltips="1" connect="1" arrows="1" fold="1" page="1" pageScale="1" pageWidth="850" pageHeight="1100" math="0" shadow="0">
      <root>
        <mxCell id="0" />
        <mxCell id="1" parent="0" />
        <mxCell id="KJbvt8bhRsLUnUowXjty-1" value="" style="shape=image;verticalLabelPosition=bottom;labelBackgroundColor=default;verticalAlign=top;aspect=fixed;imageAspect=0;image=data:image/png,iVBORw0KGgoAAAANSUhEUgAAADMAAAAxCAYAAAB3aZEhAAAGxklEQVRoBe2Z+0tVTxDA+48MBAuyp5VW9lSTykcmgSBhFoQ/hEGiEZFUFmmhhpmoSQSRRCmJRSWWpBFo/pBCLzOpTM0ymy+fgTkcL14691yN+w0X9u557Nmdz87szO7eRfIPpUX/EIsswESqNhc049bMz58/9fb3799aTk1NOa+np6fl169fYu8oeWbJfW3Pwil9awYhyZYQzC0cggNmddwl17w3SGsj3NI3DB2jFROMkvz9+3d5+fKl3Lx5U5qamqShoUHa29vl7du3DtyPHz9U7rkG8g1j5kSJRoBobW2V7du3y5o1a2THjh2SkpIimzZtkuXLl8vq1avl+PHj0tfXpxpxA4WrEfveNwwNmGmhkby8PIUAoKOjQ7XAyCP0p0+f5OLFi7J+/Xqtg8Z49+XLF5NjTkrfMGbvHz58kP3798uGDRvk9u3bKry9o7SMtG/evJFjx47JqlWrpL6+Xt69ezcDwgZnxsMQbnzDYF6Y1qVLl2TlypXy+PFjZ07cv39fTp06JQcPHpQDBw5IRUWFDA0NqSZHR0elsLBQtm3bNgPGoG0gQmBwqvqGoYWenh5ZtmyZlJWVqaDj4+Ny/vx5HfmkpCQ1vUOHDsnGjRslMTFROjs7FRhtbt68WaiDE5kLEOQJC+b06dM6yc0lo4ElS5ZIbW2tAMZzBMWT7du3T1asWCGvX7+WiYkJuXv3rmzZskUGBgaces4Q+7wIC2bPnj1SUFCgoz0yMiLx8fFy7tw5vUceQHAAgDHZ165dKydPnlRR379/r3C4cNOOTwbnM98w3759U9O5cOGCNvbw4UNZt26dPH361GmcCxMUMMAZAJ7xPW6b77m3RD2/yTfM169fJS4uTq5du6Z9ExyJL58/f9Z7E8oEnZyclBMnTkhCQoIGV0wNGJ7h2klmrnrj48c3DF6JuGEw169fVzhiioEgpAmI9ztz5oy6cEwPGOaMmR3fWPbBoZ/4hmGOEFvq6uq0ocbGRr3HBZtQNuIIDxQmhRdjIJhHaKaoqMipT0OmST9AnmFs+WKdIDRzBI0Qb4jqaIqJDgRmZck0hWaAYb6MjY3pNfHI4KlvmrRvQyk9w1iHQCEsI4t3IpLzrqamRs0MjWFCBmBaQUhgtm7dOgOGOUNdt0mGAuCuGxKMfUjnTHSWJWgG07hx44a6ZgKigQBggvJtaWmpBlBg0QyaLCkpUW2YeQHvN3mGMcHojMhfXV2twh85ckSuXr0q+fn5KujZs2dVW5cvX5YrV66oxtAayx7qAMB1ZWWlerbs7Gxpbm4W4g7gNhB+gDzDYF7YOsv4pUuX6nxhzrgzZsc9GqPknkCKC2dJwzOu3RknQn3qPXnyRLVkUFZ6BQsJpry8XBeVrI4xM+ACM/EHb0WJM+C9lVzzLjC/evVK13FozczUQELRlGeYjx8/qvdhxYvNz+Z1rGNKJjTZHAb1Z/sGs6Xe4OCgaoh55QaxNr1oxzPMixcv1GzYeNn8CeyU5whvMFwbAM+4Dsz2nLqZmZnCHAps1wsIdTzDPH/+XLe+3d3djoCBneCREBYzYnnDXqa4uFi6urqciR0oqMECs3fvXklLS5t/GDTDxAUmWEIw5gU7z6ioKElPT9e4whnArVu3gn2mz4HMyspSGMyOxLNQkmfNeIFBiLa2Nl1wPnr0SFcGw8PDcvToUV2HobFgKeJgEJT4w5qLFQJmR+bUBq3iRIKliINB8Dt37mg8IbCiKdZoaIZts20PZgOKOBgEwqySk5M1urMlZitNUGTFzPtgKeJgzDOxVCH6EzuAYXGJt0JzwVLEwSAQ2wEOBFNTU1V43HJsbKx6wf+dZjAz1mB2NsCWAM2wo4wYzTCh2eNTBhthhEUTeC4OBTmxxIPl5OTIrl27PMEQm+Y9zhAsgXn27JnTWaD9IwT7msWLF+tqgZUyp50cFBI4Z/NmfGNzjeVMRkaG3gcbsMA+3feegyZ/UwBjazN3I3aNUJwn37t3T8+dW1pa9Jo4w1FUMDMDiAwIqwDamVcYNMNc6O3tdUbSIKy0UUYQ2y5zbSNvpdWn5L0JDgxrs3mH4YiVucAO0n1Y4RaMaxMEMISkNKFng7F6HFFxpkaAtTYC2/7TvWczY3lCR3TIZsqW93Rs2UY5lJJ22B9VVVVJdHS0Hq7/Sehg7z3D0EB/f7/s3r1b4wYeij19uDk3N1eXOjExMerOgfObPMNgDpyoEEdYTGLfO3funJH51yzUTAw6fPiwPHjwQDVE0PWbQoKxOYBZAccohptph0wKRyt87xmGykCQgJrrZG2H025IMOF09De+XYD5G6Psp4//AJVef2bvhIhzAAAAAElFTkSuQmCC;" vertex="1" parent="1">
          <mxGeometry x="380" y="240.39" width="61" height="58.61" as="geometry" />
        </mxCell>
        <mxCell id="KJbvt8bhRsLUnUowXjty-2" value="Encrypted Connection" style="text;html=1;strokeColor=none;fillColor=none;align=center;verticalAlign=middle;whiteSpace=wrap;rounded=0;" vertex="1" parent="1">
          <mxGeometry x="381" y="310" width="60" height="30" as="geometry" />
        </mxCell>
        <mxCell id="KJbvt8bhRsLUnUowXjty-3" style="edgeStyle=orthogonalEdgeStyle;rounded=0;orthogonalLoop=1;jettySize=auto;html=1;exitX=0.5;exitY=1;exitDx=0;exitDy=0;" edge="1" parent="1" source="KJbvt8bhRsLUnUowXjty-2" target="KJbvt8bhRsLUnUowXjty-2">
          <mxGeometry relative="1" as="geometry" />
        </mxCell>
        <mxCell id="KJbvt8bhRsLUnUowXjty-4" value="" style="endArrow=none;html=1;rounded=0;" edge="1" parent="1">
          <mxGeometry width="50" height="50" relative="1" as="geometry">
            <mxPoint x="360" y="280" as="sourcePoint" />
            <mxPoint x="260" y="280" as="targetPoint" />
          </mxGeometry>
        </mxCell>
        <mxCell id="KJbvt8bhRsLUnUowXjty-5" value="" style="endArrow=none;html=1;rounded=0;" edge="1" parent="1">
          <mxGeometry width="50" height="50" relative="1" as="geometry">
            <mxPoint x="570" y="279.5" as="sourcePoint" />
            <mxPoint x="470" y="279.5" as="targetPoint" />
          </mxGeometry>
        </mxCell>
        <mxCell id="KJbvt8bhRsLUnUowXjty-7" value="Users" style="rounded=0;whiteSpace=wrap;html=1;" vertex="1" parent="1">
          <mxGeometry x="130" y="250" width="120" height="60" as="geometry" />
        </mxCell>
        <mxCell id="KJbvt8bhRsLUnUowXjty-9" value="Secure HTTPS" style="rounded=0;whiteSpace=wrap;html=1;" vertex="1" parent="1">
          <mxGeometry x="590" y="250" width="120" height="60" as="geometry" />
        </mxCell>
        <mxCell id="KJbvt8bhRsLUnUowXjty-11" value="" style="shape=image;verticalLabelPosition=bottom;labelBackgroundColor=default;verticalAlign=top;aspect=fixed;imageAspect=0;image=data:image/png,iVBORw0KGgoAAAANSUhEUgAAAKwAAACoCAYAAAB9oAXOAAAgAElEQVR4Ae2dB7A9RfH98UeO5ggIkgQJEkRBJEoQShQERQRzaakoIgYkSIaCEkmiBBUxo0hWEBFBgiQBCSJBCSogmDOI5f7rs/86r/r26+4b3t3nF7ivamv2Tu+cPtNzdnZ2dnbfXP/5z3+af/3rX5NtEoM5VgNoVH9zTcQ6OVkfCxr473//22p2IthJzzrH9qz2RPr3v/89EawNyGR/zr/S0MtOethJD/uY6GHpUB599NGJYCc965zfs6qNHnnkkYlgFYxJOucL9+GHH54IdiLUOV+oto0mY9jJGPYxM4ZFuBPBTgQ7Eaztwif7j61L7pzeXpMedtLDPrZ72N///vfN8ccf3+y3337NAQccMNkmMZhVDaA79IcOo95+Wg973333NZtttlkz//zzNwsuuGC7LbLIIlP7Wd7CCy/cLLTQQlPHDVpGeJS15clfdNFFp/Ci374MHISn1GN4Xr6Mt4Nj8/Bpy/h6Rzxteey+jLd7nypDqs2X8fX0ZeaEWMGpH290h/7Q4cCC3WKLLZpnPvOZzfOe97zJNonBrGoA3aG/GQv2Wc96VvOUpzxlsk1iMFYNoCvbMY5FsM94xjOaHXfcsTnwwAPbsS3jDG177bXX1L7ylO65556hbd9992323nvv1KbyPq18VXif+MQnQl/kZ7Z99tknLAP3rAz52D1vfmd4/TgMi4evKhYRN/Kq2Ga2mbYjetppp50a9CXRjkWwCyywQPP1r3+9+ec//9n84x//mNr+9re/NX/5y1+mfsv297//vfnrX/+a2ijDMTpeqfAiG3hs3iZf2ISjFFvmK8OjLGUqPHjKh1Lh6bdNsUVlxK+y+fqCy/FR/kzwhm1HOGSxrWw2TujpW9/6VoO+xi5YgO0gmMARIJunfQVTv5VCkMqQKk8peePEU8MK36b4yXzBj7L2ePbhR7Aj7mBh82X4PQoePiiX4VXcI37Ci2xVO1bc4TAsHmV8bGdFsKOIgcrRqJ6wxEBwxhEA4WXiqhooCqjwMgFRprKNUt8Mj/zKFsVPcY9sVTtmcarwsMEv8pXFtnPBZhWhYSHFxr7dVMmo8RS0qJKZLwUmw8vESrmoDFzJj2yUoU4RP/KzBqp8ZXjyZWOnfbhlsa3wMn4ZHv7AG9YXeNnJlOHh6xvf+EZ3Q4IqoJDKGpyKRLZRg1Y1ghcrnO+///7ml7/8ZXPnnXe2Kfu/+MUvpvZ/9rOftTbyOOZ3v/tde8JR1uNJQKovdXjggQdaLGGCoX2l+GTD14MPPthzQoOJr1tvvbUtpzKk+O8XJ8qKl1LyqjhFgqSs6iUcpeBhi3z144ddOEqFc+qpp3Yj2K985SshWQhQkSwACriIKlVA9dumFV4VNIkL7N/+9rfNN7/5zWbjjTduB/Rzzz1386QnPanvNtdcczVf+9rX2rqCZ3lpXyI9++yzm9e//vXN85///L648s0Nxv7779/TG8GXk0THKGUa8eKLLw5PdriovuJl08wG96wnpEzVjhKZ9aN2jGyDtGNnQwIa0RLVfkWKAERnl4I2SiUzPNtA3/3ud5utt966efKTn9xOmTz3uc+dugvV3WiWzjfffK3Q4Rbxw8/3v//9ZquttmoWW2yxFv85z3nOwPiLL754c+ihh06JhvoQQ3Cf/vSnN+JKuswyyzRXXXXVtLjDizIRP/KqnjUTa9aOFZ5s0oJNKzxsasfOBAuwJcS+dWxtqohIWZsaiGNsvvDA9Pn98KxYzzrrrGa55ZZrnv3sZw8sIiteBJudnPC64IILmnXXXbdHXLZ8v30Ee9hhh02JSuKiDnC2gl1++eWbq6++elo8iFEUP/Iym+LuY6u4R201CF7Eo9KFt82aYL1jGwiCnwWgOsOjMgpoFBiOx5d833LLLa1I1ej9xBPZEexpp502hSls/DPMWG+99Wb02NoK1nLPBHvllVf2cOG4KBbwzGwcn8WdGNKWqqdNR8GrdIHNc58VweI4qiRkqGQkPAXNEyZAVdCyAMiX8P70pz+1T2v8oz7Ei0i4vC677LLNC17wgnbMybiTDZsVbiRY+NHgxxxzTLtAxx4PPhv4wiTFF5s9ln38HXzwwc2f//znHpEQt6iHlWCpZ9Tgil8mLnG3QtR+v3ZUbHU8KXmZ+DM8ymXt2LlgM8eqSCRWCTIKQFbJfni+ge64445m/fXX7xkKICQEyiNA7ka5CSNA2k488cRmjTXWaOwY1AtWPBDYqquu2tgTgnJctvfYY48pTGErtcdLsIccckjPlYEG7SdYRBLFVvyi2CruVnDar9oxs/XDo5zwlcIrw+MYnqB29qQL51XQMltUEciSX9myRvBiBevSSy9tVl555akxIOLQI2UeIUa9AtNGG2ywQY8IrWDhhi/wr7322nZpnO0xOSGOOOKI5o9//ONUQ8FZ/CjPjZQtY4cE4GqDY9TDXnPNNS33KLaUpV5ZnKrYzgaejYXqqRT/2OlEOhHsV7/61angyimpSEUBwDbOgMoXqeXAPlNMXJatOOadd96p4UbE76677mq22267qcu3LuNnnnlmW86K/Pzzz582HEBgl1xyyRQX1Ve+EMyaa67Zg7/iiis2Rx55ZM8JRDkWLHvBcnXgRIzqS55ODB8L/Fvu1o4tEnKFhy3DAyvCwyf5ioXlIDxSrkSdCBZg65R9OY5IKWgc48tllazwsGUNBP4ZZ5zRLL300tMES7kooORzmb/nnnvahwVM9mtjYp8yHCPukWAZElx++eVTx/gylNcDC2HTq3PzJmzixEbdvGA5gX784x9P4YtLFVtsUX0pS35kgwuCpKx8KK18VXjYMjzbjrMm2KqS2KLADBI0NaQCRloFTcdnPazF0b64q6zySeFN43lbJFjbw9pGsHjyZfO0T70Up0iwjI9106UypBE/8i2ePZ79TEDww+brS5nKNgqe+FlfsyZYAgwBHxjIjDugmRgUVNJBBSt+nje/aQR8RbZIsIxh6QGz+uIrwyN2lJMvjvM9bCTYLBYeT7ikEorN036G1y9OxEoYNq2EHPnqXLBqhGHFSkWyStJwER55VDKywYNNweLp1gorrDBtSHDvvfdOHcPxcLDlVB4flfAuuuii9l0sO0ZGYAxFIn7kZfWNbNSzEiycM37irrrYNIs7eFlshRfFqcLDRlnrn/0Kr/PFL5W4IDxsJSu86IwkAPjwfribZoqKXk+ieupTn9q8973vbceMWTny4Z2JQfwYi/IoVtikCIwV87/+9a+nNVLEUY2HP/btVgkWrIwfYojwVK9IQMLLbFU7DluG47N2hCNrVDq76cJ5RpiA2gbQPsdXAfXCoxx5VSWjMvSkvLyGiKyoWECy2mqrNW9/+9tb8SLgXXbZpX1lhV7Z3gCJs1KJVZxYSOPxOSm48wfXbrwSc/rpp/e8rgxeFicWvzztaU+bOuE48TQkoExUZ2Kb4VVxz/DwkeHRhqO0Y1YGfmydDQmy5+uqZBbQiDDHkg9hiUMptkys2CI/lKXMscceO01QiJfJe4TlX6Lk/SHWBRx11FHtbIE4kEb8WPTCvKp90AA+vz02v/HJwwYeFNx2220tR+uDfepDHKJ5WKbpLrvssmkxohxlMnFhy+JexXZYvCxOqld2Ylh+nQkWYIjYTY4jERGwLGhUhLIWi33ysoBij/zY/F/96lfNtttuO+3SbXtcv49o6TW32Wab5sYbb2w5RWIVv/e///09Dxo8nv/NyYIPVnddd9110+osX9QbHhrS2B4W33ZT3G0e+8RHeJGtijvlovhWeJlN/DI8yonfrAkWMtkZBCFLSuRIszIzFat8cIlfe+21249wqPG9iKLfiGqHHXZoF2PDRXg2RVQ8bGANLEsXI5wsjzdD6c3tUzEbi0EFq7hbXtqXUPTbpuBH9QIva6uqHbFFgiQPX9a39injOcyKYBW0iHAVtIgwlVElI7woTwHAFtl5GMDzfcaASyyxRNsjIhi7+bEo4uax6QknnDAt2Piw4uKkYIkgE/uUActis+/xETJfPuHVd8XIch9EsJSDh+pvU2HaPPbxAbb1pWNUL/22aT+x4s8ez77wIl8Zv84FK8cRqaySqkhUSfKys19B8IFRfsQBGzweeuih9ikU41ou429729uanXfeuU3Z32ijjab1kghtww03nNYQ0YkGb9aqHnfccc1uu+02hQs22yabbNKObW0vzz5P41io47n3E6ziHsVi1Ljbk9DiVnhRLChbtaPwfJ0p1/niF5xHjkXKVlz7WRlVMsIjL8oHM8vH5nsTfPzhD39o79YRMc/s2e6+++62F/Y9Ib3gzTffPCVaj6c6wYEGp25c5oWrlGkwXoXhJLDDBETLgg9fh0ywTNdxLH7k26bUj83msU8ZMDNbJtYMD8yqHStbxEEcO3unS0H2gZbjLKDkR4QV0AgPzGzLjie/agQaz2P+9Kc/bdZaa62eu35Wa/HUrMLDFuGBT13hwT6iZbbACpYZhaOPPnqaABE6J496ZFLenNCTNM9dvqK49+Mufh4TrAiP46p2xIZPj0csMjw4YO9sSEDX7QmpIhEpBa0Sa2aLKo8v8jNbJdYsoNEaWgTLyQm3jF8/X4oTfplbtYL1ywupD8dl01rR4hfw4VbFPYoTZTLuYFV4USzI48TNfIEX2cgXXmeCBVgNoXTUSmZBAzeqYJWPLQsaWJkN7loPa4cFCHaUOWfqBKZiQ0peP8EqFvD0PSw3jdFLiDS2Gtz6o77gRTby5MuWYT9rR9kyvCq2PhbySb5t41kTLE4rUlElFVBLWBUhHSWfRqAs/uilCCIb+2wWX/vw5ngJ1r4VYBdw6/gIX37AYRMPWwY/1QJu+KnO4EWC9au18JXFPRMknCJ+qleGpzjZOrEP56zMsPxmRbCQjQirIpD2lSSPRolslFPD+XKZzfu64oor2vlRFmRvv/327QMEXvX2ePgXB4YEvFToe1geqfpyPHHioQTY2lhHwMOAKBaUZ/qLp112SMA02+GHH96uxbV1HkSw8I58gUN5iyf+lMmEnOFRFj+Kk7BIx43XuWCpSBY0ApNVMgsoQYgCrfzM5huB17sRA5dgejW2eeaZp0d4YFk8lgyyDkA3OgiLHpaPV6iROJ76nnfeee0bB8Im9Qu4VYaUMqxV8A8Y4Mgn0X2PlwlWr3nDI4otvsiPbOR5P+I47nbM8PCX6QIbw69OF79ATJW2aUaKQFditRh23wrL50eNkK2H5U6d17/9xiqhVVZZpUesCJfPueuNVjhoWBGth0XgvBLO54c8/sknn9w+cfPrDniixlJFWyf28WOHBGCzloDlizfddFNz/fXXT/Phfeo3q8fgTpyiOFbiwhaJH5ysHfvhRRzIY+vsnS7my+TEB7uqZGYDI6qI8iMbeRleJFgESI8WbUw3RWJ6z3ve04oJX/bEyATLXX+ErzUKdjjAWHmdddZpH2rYGOKLuWIv2Ip/5JM8rjC77777VB2sH/b79bqZWDPxczxt4v3wm/zIpnYk7WxIwEJbT0qNWlUys1HW4/Gb/MyWBY3jGXf6lxARC40ebVZI7COW1VdfvV0dBR6BtjwywWY+PD4c+McY5557bk+91eB+SKDyEfcqj3/Oseuuu/b4UJwrARHbqK3Ig1tkE56Nk3yBl4nVtmNnggVYZJT6RlW+KhlVhGNGyc8uR2DhjzFsJFg1fL+Um6PPfvazbePgS3VRWgm2HzY9OT06N1s0ljDhrsbLBNsP29sRrHpY+SGVuGye9rFFgoRfFvcKT3USvlJbX+XNmmAzwlUlIYldZG1KfmQjD1+RjSBLAAwJeC266n3UuByDiLhsc5nmsn7SSSc1fD0GX5aX9nXT5fHB9Hn6DTZ+eGKFWLnsC8+f1AiD41XWp5Ufe2wkWHxl9SI/E2smvFHxonacFcFSkaySWQBoqEh0/fIzXwqaMDWGXXLJJVsBLrXUUo3fEKbyVlpppWbLLbdsPv7xj6fDAIkLH9zxMzOg8qR8kgh/Nk/74G+66abt5ZmF35wMwoO7TjTlqYfN8MjHn/CzlLULH/nIR6Z80R5s8qOUOmVtBT/4RG0s7oq78EgrX5n4OxdsJaCMFJWJKtgvP7scgeVtzHkyBcTG0yHt25THnPp9ww03tO9iMSMAXsadBqIhwGcSX+WVZr64q2eBjV3/Sn2Fx77d4AB+hpfli4dSMPgGAtiZIGWL2gR+PrbiWeFl8YvaSnikfKClk2mtfs/Xs0pCKgpMv/wqANhspbWfBRT/o+Cp8YRvU/Cw2zzt2ydYyiMVXhQPbPC3x2u/im1mA2uccar4jRJ38Ng662GZt1QAbaozCOc2X/tR42Cr8glAZFfQMlvGYdSAUk71sClCiGzwqrhnJ43qZX0oRpWvUfCyWMAB8UcxJC/zleENGovOBBtNa1UVUcB9Iyg/Eh22qseobFGgwSPQkQ3/WSOQHwkSvKyB5CuqF/4pl9kqfpGtwqv4ZTbwqthSjvr5rYpthWdtnQkWYEuY4FvH1sZ+1Dj98sHzOCpDcCJb1ggcm/GruKvxIl/gRQLi2GwYIF8RnoQX2SpfWb2IRSauLE7wy2Jb8RsFL/I1K4JVI2SNhz1qhCyfYwlAZFfQMlvGoQootoiffEU2GjVqWHiRn/HLbHCIeICDIDNbhgf3iJ9iG8VJ3COb8KJ6wS0qw7HYojIZXueChUx19kdkCRr5mY1AZwHIGigLGr5GwcN/JJJBGjyqV4WX2cDJuGdlxC/iDl4WJ/D69dRRvcDLfGXcOT7z1algqUDmGFtUQYmV1G8Vnirpy/AbGwH3tgpPNl+G32AR7MiWNQLHZrEQXhQPbFGDg4evqAx5ma3CGyVO/fAyflUssEWxJa+zTxVp8QsVipxHFeG4Kj8TA2WyRsV/xqFqIHxFvMHKbP3worqRVzVeVC+VyWyVWEfhDr8ohv3invEjP4tFZsM/ZTrrYbN3unAakZU4MltWEcqpMsJQClYUaOwVXmar8PCT+ar44Ut8bVr5okzkizIV98xXhqc4Zb6yevXDg6etK/tgZScaeOLemWAB9qSi35C/77772i+k8JWUaGOlP+tUI9vtt98e5usL1lmZCi+zwSPCwxevz0S2rAw+KBeVqWzgRb4ok8WJ46My+M64Cy/iB1ZWL/AoG5XL+NH+CDISshUr+plVwUaEeNTJlwJZiML3WifbEysGtDvtr0XwtlNDrL53nzXBRmKFHIs8Xve617XL6ewqosl+vC738RYXllHS/naxD7rwPauEPGuClUObImIJ1r98p6V9k/R5PS8lPt7iQbt7wTKWRbBWK9rv9J0unGQ9q/Ingn18C7LfCeYFGw0DJFbSzqa1orUEcoxYvWAXWWSR9hVnKjDZnjgxoN3VwzJezXpW8tFMZ0OCTLBWrAgYIhdeeGHzhS98YbI9QWNA+7O2IhOrne7qTLAAq0dVql5Vv5WSn01oVzYq6O8ihZlNxoOXPUnRXKAwbAq/jKMNqC3Tz9cgDWTx2M989eudojiJH6n3MypeFiN8ZLZh2nHWBAvhKDAECsKRjbzMRj6bD7TwsgbKgsbxmY38yAY/8jPumS0TAzicTFG9ZIt8VdzBymLR7wlW5CuLO8dii8qQN2ws1I4eb1YEi1PvWEKjIllAswAoaBEmtmHxOJ5y4mRT+EU2fJMfcajwKJPhZbEAb9QGj3yBl4lV3KN6gYXdxod9jq24Uy7Di/iBmfnqXLARUVU4awQFICqbVQRMGiEqQ15mkxjEyaZZI/TzldVLYrA+tJ8JqIpFhZfFqV8shhVQxa/yhZ/MV9ZWxKqzd7qiMawah4pAllR5ShUA/bYpDcRm87QPXmTrh4e4hGFT8jNbFlB8ZTa4RXgqEzWebKSWG/sZHrYqFtWJEXEQXmSDF/kZvyoWEZ58RXjksXXWw2aLXyBFw2WkMhsNVFUyE2sV0AovssG5whuWO3iUyXxVeNiIpd/AimJBXiZWbJkv8Cp+kS/VK2rjDE9izfAoB15ngmV5oQ8mv7PA9KtkVBHhRbYKD5sC4DnCL8KTL8r6Mhyf1Qtb1ODCi3xV3Edt8FF7u2H5VbGouGdxJxaWe2eCjYYEWaOqgbwQ+E0lo6BVNlUywqts8GOLytmgeXtmU+P54/lNmUzIo+BlcVJ9oxhiyziQH9lUhtTXCx9w9/n8zvhhq3Th8WZNsBnhKgDYokD3CwC+ooDKVxRQ/AzbQOBVwY7wxL2yRdzhl51M2KI4iV9kIy+LE/kVvwhPviLu5EVlFIvIRpmI36wIlkBnpLDxj375Uord7r///obN5mmff7nJGkr9tinfOn3ggQdC229+85swv/KFn4gHPsCLfHF8xI9jyY/KyGbron3KRHjY++FlvrJYkB/VF1/ENrKpvpEvbFEZ8GhHyvAfcazQ2c86gs4FmzkWKdZB8o/c+Ffw/AtNbS95yUsaNv22aT+bPdbuj4oXlevHISoDlyp/nLZx8+uKO+1O+2s9LLrwwwB7Rexs8Uv1Thek1N1rtRafSuebq5PtiRUD2l2LX9SJkVqRsk8eW2c9bPWpItvrSrCs0Oq3FG1if/wtRbTLC60urGA1pu5UsHwMzjrVWQIpmz8R7ONPhMN0LHySlP92jg6sLrSPSO0QobMeFmA5JcWxhgE2X4Ll0sAHgyfbEysGdkhgdcE+evEd3KwINhMrpFgHyfBhn332mWxP0BjQ/l6Ydhhghdy5YBFrNTaJprsgmJXxlwhbGZ0YNk/7GV4/XwROGDaFd8U9slX8KrzoyiQuo/DL8Cp+2LyoLIeovtizuINnL/XCIpUvUpvPfqeClWPvlN/9GigKQIVX2QhaFux+AY2CBrcMj0bIRIRtWDywsliAl9kyDhwflaFNMiFzfMU985XhEQPwIl1U7cjxnU1r8YoMzrMGqioZBRScKgAVXiQu4WW+MiFzfIZHfsQDX8PiSUAZXiZW+GVxki0SCvyiWKjMONuxikVUX8UCDp31sNniFwhlpLKgVQ2OLWsg8qNGIACj+FLjDdPgFb8KL+MO3qi9XRQLxTazVbHFNmwsMu7iQeoxbVt1JliAvWMqmF0KRmkgNZ73w28qyRbZsqBxbGajQSu8rPEyPDVQxC+LhfhV4orwOD7jRz5cdAyzNjw25XEqj07ZJ0+cOJb9DI8YcYznQV7W9pXNt+OsCVYNHlVGwYgqiS0qQ14WNPIjcVGG/KzBs2CLe8SPMhEPfGVizfDAx1bhRdxVJoqTbJ473Pift/x7Jv5BHo9Hd9hhh2bDDTdsXvziFzcvetGL2o198rBxzDHHHNOcc845zc9//vNpAoR3xE9xH4YffKN2nBXB4jhqBEiNIiAqDl4UgExACkAW0Awva3A1QlSvil+G148fAou4Cy+KBdw8P3rLSy65pP3fXOutt16z7LLLtv9vlk8G8X9no39WRx42juHJFN/DWn/99ZuPfexjDf9TTItXIn6KU8SvssE7wutcsJnjfmIdx+UDH9qyBido2KKASgzCsCllvBhkr/A4oXScTbM4VfywZRwiPP7vGD0lT5ckzGGeStlj+cYXGPxjute85jXND3/4w2n1EndbT+1XtqwTo2xnswScCcMGFEKUgTCpKqdUNv22KQ2UiaEfXuQLsVZ4kVDEr8LLbMPigUOZfnjYufTvv//+7X98pKdEbFZ8M9kHS5h77713c+ONN7acxM+2kfaxZbHN2lH17OwlRN7pwokciSwppGx3D3meeLHxnwBZaqbfSvm/q2yZLSrHsVyuuAwKRym2qAx2jsemY5VSBg4RHnn4ivhleOSDF/nCJ3GxcVIMdTL1iy3HMb3I5ZteNRMq/98W0elzURynjdVzspFybCRwjme4sO666zannHJKW6+IH3nZieZ1ofpKM5TtbEgQLX7BsW8EGubAAw9stttuu+YNb3hDuxCC1G8skGDz+SoT2VSmss0JeJ7D9ttv3+y3337NQw89NO0qgwhpWNuY2rcNzolw1FFHtSJCdJHIyF944YXbb/K+8Y1vbA466KD2Neof/ehHDcMHLvOMUfli4CGHHNJwzKqrrtostNBC7XAgw2R9wMEHH9wuzBc3UgSX9axeF7acHWJ1JliArVP2bUBlo5dhPSSVnKyF/f9rYemptt5663Y1vuJEqgYntfnsE1sJmTc4EAxjTC8qekLlb7LJJs0JJ5zQfjHbCwkf3g/HMNVFD7r55ps3SyyxRIsFpvdDT7zXXns1Dz74YMtV3D1vcY+uJNjwaXnMmmAjsUJIgqWRfKWfqL+5kfGCrYYB6nVpWIYkjCWJne9ZEREio4P40pe+1IrPikFisuJXnlJ8UYaT4rTTTmuvemD6oQK/EfKHP/zhdk5X5YSjtPIVaWZWBJt191R8Itjp62G9YCVINbJNbYNz6Tz22GPb6ScvIMawTGGdeOKJrYA41uJo3+IpT2nUjjxYOOmkk5rll1++HSfbTgYOjHv32GOP9kQSjtIIz9qik6lzwUZnCaQgQ9AkWOb4qOBke07b8OphiRMxVEPa1IqL484+++x2PbEVDfusMWbO9eabb27jjlAsjvb7nRiRgMhju/XWW5uNN954Wq8uLggNfPnKxAqWHbPqeKWdT2tZknIKKYItcp/85Cfb+UEG9dwgMVcYbZUtOr5fHnj4jI7LfHGDFB1PXmQDnw1b5Iv8yNdhhx3W3nTRsMRJsVMqccmGYDbbbLOp8amEwlBryy23bK6++upWMIq7cJQKT79tak8Mm49vy48prde+9rVtryr/pAxNNthgg+amm25q6wFedNKAV/HD3lkPy52lrZz2fSXJJ1jamDWAtH4rJY8zL7Jl+ZTNbAQMm/Btio3N5rEvDj5ftqgMtn54UTny8Ee8FDul5LPpNyk3OH7MSs+62mqrNddff31bF+o7KJ6wxU2/lUbtiO22225re3OGIFa0cPnABz7Q+icmwrFp5Uux6Eyw0bQWlcyCJputgPapCJt+21Sis3naz3xJRELZwLgAABS/SURBVDrOppTxYpAdDlGDk5eVIT9roIx7Pzzvi+f6CyywQM88K0MrxqyayM/iBzePN0h94a7jfEpPuvLKK0+7EYPjVVddFZbL2kq6UNw7EyzAtiI4rBp81IBGYqh8ZWJVmajxsFUBHZa78Ebh7vlxD/CWt7ylnRZUj8bdOdvxxx/fnmCUwadtD/YrsVLG+6KM4tQP73Of+1yz5JJL9pxE3EwyZOBBibhUeLLpWNJZEawcZw2UBZT8TAzYMrzsxMgaSPyyBsr4ZXgEljIZHvwi7sKDj22kCo9JfoRg50LZZ2zMl1qyWGT85CvipzhF/LyNL8hwIllenFBwveCCC6bqN2wsOhcsFal6p+zSQkXYfMPxmzJRQGWLAsrxFV4kLvAoMyweWBE/xSKzZRwyPOLAy5t+7MpUEkMy7gci7uBlvqhvxm+YdsQvSxf9WJahykc/+tF2diiLreIUtX2ngsVxRQpbRKoS17gCil8FJmq8mXDP8LITrfJVxYL/6crTKkSg4QD7q6++enPPPfeksY34EQ/yI1vFT7aoHXm48NKXvrRn5gJ+TH/x/2qzEyPTDD46X/ySkSIwVNZXlPxMyNgyvKySHF81QmWL+IFX8avwIu7Ci3yBleGRf/HFFzerrLJKz2WX5/wsyI7wslhIrBE/cLLYYoNH5It88HyPyBBhxRVXbH7wgx9Ma/sqFtjw4/GYfdhiiy3aj+J5LfF7Lp/J1/MoQEGd5dwNMsHrj+V3FQACk4mB/GEDyvFRg8MDvMyWNUIVUDWQr7PqG3Gv+FV44sf/NuPGRnFHDPPMM087dvU8KMPm8xWLiB/cq2EAMeQYj2nbirUEyy23XM9VAL6cVLac4hTh2Th1JliALSH2FQCfz29IUdHIZgNg7cKLKimbPV77NELVeBlexq8Sw7iHAfiSuJh75SZGgmW8yBBB9VTK8fDQb5taPJtPDLL6VjbwvC8emFiedG7vfve7p/hUbeW5z5pgIUVlSG1g2IcUNp+vMmoga8dGQDO8KNgqU/kaBg8+YGV4mVipT8U9wyPfxuJNb3pTu3xQgl100UXbd65snLLYirvFUznFKYoFefCIbJ6f8I477rieaTcEy1M5MISnY20acZ8VwUIqayDyI3FBPAtAhRdVUkHAD5j6rVRBI1We0gqvH79IDMIbxpf4WTzyXvGKV/TMENCL2X+ZCr+ovtSNWFg81RdcTrSIH3mUi2wZHrjf/va3e8bZ3HjxBI75WPhFeIqTeCntXLCQYXpFDm1KJf3lQ/asdxJeVskKr2q8CI88OIqTTbOAckzFfRS8qFHxz5MszRAwfuXlQOZl4VDxy8RFfbP4VbaqHbGxGJxxrOZkSVmSeO+996axzeLUqWBHbXAaiIBbgbAvPFJv4/iokioTiVW2CE8274ffYGV4GXfxi3xJXN7G7wwPYdHwVgQs8dMiF2Lh8QbhHpURjywWWdzhTllWia200ko9XBkW8O0Dj6k4+XzxYo0KN/UaBoEzllkCgHEiR5YAFYkqyTFZA4GTNYIa3PrQPmXA1G+l4CmgylNa4VEmw8MXZYWjVHjDxEL1jfCw8QoMDwysYJdZZpl2qisqA5eMn3xF/MjL4pTFwvuKBMvDDS9YxUlxs6m4d9bDRotfVBGcWzLary6l2KKAUskKLxKXeER45IEX2aoGwhYJBZyMQ9VAlIk4iB92BKohAT3O0ksv3b6DpXjaVA1u89gHb9RhQBV3G4sbbrihfW/MnlyLL754j2CrdrTcOxMswD44BDmrJDZbSZVVA0WNx/FRsFUGTOEoVQNFeCqnY23aBfeIHz6rWGCDJxv/eMMKlh73jDPOmFbnCo/2GGcsIrzvfOc7zfOf//ypyzicGSJwlaC+/drRambWBEvQrGMvhlHECqbFYV+iy2zkRw2E/6gMmORHNnDIj7gLL/I1Kp4XAwu/ubRqPMeLnJ/+9Kd7YpLxU5wi7qpXxj0qozhFNl505I0S8eQlyFe+8pVt3BQn3478pr4+7rMiWEhlYiU/qqQCGgVNeJEtqqSCgS0qU+FlDV41ED58oMUBX5mN/IgfeRH33XffvUewPDhg+Z58VbHIhliZLzDBYxO+TcGL2pFjOLHsIhim39785je3OFks8BPhdS5YCGWVzEgRtCqg0TCAwJAfBaBqhMpXJi7K4CcKaD9fET+4V3jYwLUCYZ8XCpkeUs/FGJFHs3zPAG6j8MvaCg6ZrWpHvjpjbw7hCk++cxDViXqBl/nq/J2ucTZQJiA1eORL4oqCU+FVNvxEYlCZYX1leOBkYqDOZ511VvPCF75wSrCIYcEFF2xYPB3xUywqW8QdflFsFfeojLgfffTR7cc67EnF9BtLDylvN/HL8Mjni0KdTGt98YtfbHs8ej2dMUrpAVgp7208+WBJGu/W61ilDNCx8RBCeUopRxmPx29sURnhRWX45BCb8JWCk+FhA9PjkV/hUSfKyYdS6oMvj4cdGwukeR5vF78gCsaHfJoIXC8GsDKxghsJhfyoDNhZGXCwsfBlzTXX7LkxpHdFsMwicYzdBmnHTpYXcglYZ511mle/+tWTraMYsMgl+/gIY0Q+MSTBSkCRIGXTsTalV0XkNk/7CC0SMniUIWXGwt5sqZdlloDvz/J5qmE1gq7Ql7DG8uAAMEAZaE+2bmJgG02NpxRB8No5vTACQ1yZWBFlZOs3DMjEii983nXXXc2222479WBD3JTCcRRt+HqPTbAiNkmnf9ml65hw2V1qqaUahmWIJxIkeZmQEWskSLAym8fjCzQ8HIBLl/WdCPZ5sy+wmTYovZXvechjMUz0qgziGvZSj1h1qWffbuAxVicl/9prrw0/EgenmdbVlx9asFx2WNvIpPUoXfykTD1kYDya9VLkI1Q+7sYnOmk826CU5Z0qvgojMZHqsm1Fxz69Z2YjP+p1hUeKnY92sHQQ35YLPFmk4t/xssewz03jMJpAd+hPwx9fp2mvyHCHy6WHb7z6ja8++7wufh9wwAENW4Rd2aLj++XNVp3gwTdi+VqKXelkG5ge6x3veEe7TI8lfGussca0npbGR9AISaKUeG3jasya2TKxUk5lWCnGZ5Hs0zf4whNucGRdwaabbhqehAwhEHXUllU7oj90aOuj/WmCxUBlok3jncg2zjwFO8KsbNHx/fJmq07wYGpqt91265kWkmDpsfhgHF99oQ24XPMBYz804Hh63o022qi55ZZbwkbNek9wMxsitUMExMqCcn17VjxJuRLwyJjj2Tj2ZS972bR6cRzrIy6//PIePRFzylWxl0B9GgrWHzTqb52po5b35caN5/G7+g1vLnG77LJLzyS5RIAoWal15513TgmQMg888EA7NKBX1bFKuUTzRi29EZ/IVGwQQTUM0HG2ruRRhpQlgrwMOe+8804bBuAbvwxXOPkoI1/XXXdde2PohzH85jLPQnS44QOxWv/aj7jJpnRGgq0cVDY5HyYdN94wvmd67N13393suuuuoQC4vG6zzTbN7bff3tOICIFema+9MLcZ9bT0YGxvfetbm9NPP70dSmRiUG8W1QUbogeDFwyjXhWxwoHhCJwow2bxGB7wP8D8zRiiZZ6Wz4fygMmW0T7tO0gbjyzYCryyieATJeVpzwc/+MFwSggBvOpVr5oajyomiA6x6vcdd9zRfqrICwERIVjyWYPAkILXremp1WOCkYmBfOZXeZ6PUPXlbTDVkyulZ2UumA9mgO3FKq6MaxGtP8HgyA3aRRddNFUvlRlGLyMJtnJQ2URwmHTceMP4numx9FrVMICbElbvWz9WaDYfYdG7cQMUCVc9IMOE//u//2u/34rvww8/vP1YxU9+8pO2Z2Tce84557RjUHpm/tMMz/L9pVxCxRc+d95557YHhx+b5aZ9TYUxPED0XrT4YGoOUeuEHLZ9RxKsCPp0WOe+vP9d4VU2jzPI73HjITB6VsZvanyliODlL395T8+Kf3otNaTljI181jDsueee7ZdWMoHJB2LhMSqC5D/LsM8bDIyH+c2GEKPeVBj4YDEO/yGRky/rWeHnTzRmMbgRi0TLiXreeef1zPXa+lb7YxPsuBu8Ij2n2zQb4BeyIAQakHlG7qxtPfwwQDYvBoTB1wJ5bs9Krqy3lehsijgrgepYMOmpGVuff/75rbCykwme2KL2pydlYbcXLb9ZQ2DXR6i+/dKBBRsREnhl0zHDpBVeZct8jFImw+qXz00F/3QYMUkAShECguHybHGySyy8MxtjYx6X8ro14hpEiOKRpWDAmxNN01bw5GTKeGgYYOvDvrhTV+rtTyxu7PgmVzY15/H0e2DBqoBPxy2GCq+yeV6D/B43nmYD7PpOKw7+k7bvWRFCxIO8rOcin406csfOjRYPI6wv7SNCv8nmU5YJchLo8S8c4BeJVbaIO8MXWy++Gs6yRH9SMeRgOu973/te24sP0mYzFuwgTp4IxzBnyv+w8iLgNw2FGHijgDt45mS1VjQbs1ZitWKgh/vyl7/c82ELccAvPTCiYAaAjX0W0njxiONnPvOZqaknOAzLTycaHKkjHxekzsxEMB72fulpGR4w9Ih8ee2Ugo3OHgFUNh0zTDpuvGF8z/RYhgHMs0Y3WBIPKetdmR6ip2V8yE0ZbxMwluPVE3CIQ9SjwREB+XlW5k45Gfwll96L/xPLzQ29Ok+b2NinR+YGzIuH3whaX6pUL+7jAwffXnCnDrx5gOi5UeOr4WuttVY7A+Ef79q4IFpics011/QMlbxffqeC9YRs4cpmjxt0v8KrbIPi2+PGiQcWl2S+QD3//POHvattGO0jLu7WuXOfb7752g2xc/f8vve9r+2ZLGf2EY8VMqJhegrh+Yl+xMpHkLnpiUTHGw68+cpY1d8QgUV5nqBxnOVBfb1YEeqHPvShtvdm5sHWhzr6E0kx8Ck+mfK69NJLp52UlkMqWHvQZL93+Z3igVhZG0DPScP4Hss3Sr/fNDAzCPp/rvIjsepkQ0h8iQd/Xqz8ZsqMuVDKqYywlILBI1i+5+UxhMsQhss6ZcCJ8JgR4Ukc3PvVr58d0a699trtiWhPTnEmHUqwWeUtoN+vylQ2jzMn/mbSn951q622apfgMUbkhovn8MP0LmpIRE/PaB/TerEyzuOLhtxk+d6LBkesV1xxRdlLKZaI4tRTTw2HFGCvsMIKbU+LT46N2ouxOwtcfE+tOlUpJwblFltssTZmzHYwvuY18uzDcgMLNiKrio+SVniVbdy+RsGLyiAs/gkbjx4Rwbve9a72ESU9GI2CgBm/0kiIgTzfyNi4LGosJ7HKH7/5NDtfXfG9Ilj8Ly0+O1/dvPjYcolneMBwxJ8AYMKZ+nCceCgFi9VljHvhbsVp6wgOv9ngrTjAlysKH3LmE56XXHJJw0wL9fQ85XMgwWaFBTJsWuFVtsxPVaayZXjjykc49EDMNbJaiZf4EAdjPv6FEP/Mwn7yhwanQc8999y2wexlkUs4r0QjfC9WfrPI+rLLLusZ5/p6ZLHgsq//w+WxESI9IMMHO6albgiLMacXOr0kN1ssT2R9wzvf+c72P5J//vOfb19l58aPf0DCkzvPsd/vvoLNKtkPeGKPx71qaN1Vcwm3PS1f3WYulPgp9giX16jpkeyxCJzfYFx44YWtgEaNOz4QJcMA7wPRMgThX9zrpgux4ouxNIJW70pZvlbDVYIrDtNalOH4qucclHcpWAVsULB+x40br5+//7W9qi82eqyddtqp5/Vu7rT33XffqZ6H45hYZ6gQCYl5VoYJEtBM6gwGoqTX95d4fDNGPu2003qGHJxccLaC5ZNLfggh0Ub8qjj541PBDgPiQaPfFV5li7DIq8pUtgzvf5FPI/LKDGM6NTii4LUS+HCpZmzHZdpfqjmOiXiGGTw8GBd/fB555JHtNFV0gjAVd/LJJ0+9wsJcq+VPPT71qU9NnUC0xbjESh1DwT5WGnxcjTRKfasyg9ro0Y444ohWHBIs40HmZLlEM2aNLtGIlYl2HjjYce644sEJgCh1wyhupPS85Gt4AA87huVKwByubvyoo/bHwW+aYKtgj+Jw3HijcJjNMlV9vY2GpOG5y7aiYEzI0yb+yVzUy3H8mWeeOdWLdVE/hHbKKaeET8QQKBwQph8+0OszhIETPWsmVh+LQeswTbCDFtRxleNRbcL26bjxPP5s/6Y+PMrk0aoVLPvMBvhxJMMCnk4xjqyGAVWcsjpGZRhjM0ZFoNGJE31aiRtDzQMj+shf5EvHVTaOmbFg5eixlvYLTFSfqkxli7CUd+WVVzarrrrqNMF6ATMM4DjGtJVYhTuuFNHyb+85qbxoPUd+M73G4u2sZ50pr04EO2rjzbQyc2L5frHgoxjMWUaNrzx6OGYD6FmrMWs/X8PGR3j4ZEzL/Kodr4qfUq4IzL1mT6mENywPe/xIgq0cVzbreND9Cq+yDYrf5XGD8ONZ/Oabb54KVr0aY91x96wVP29j3pj/gIhgM9EiWD684ddCEGOPZ+Ne2exx7I8kWA+i35Xjyqbyw6TjxhvG9ziPRQg77rhjKALEys0NvVsl1nHHIsPjJoopK3p7nUjqXUkRMm9bUCcbowyPYyqbxdD+2AQ7rGMReKymVX0rm68vYz2mtvxaWhqfp0s8SarE6vFm+rsfd8a0LBiP1uCy5vXQQw/tdPZiYMFWFRnVlgV33HiZn1Hzx80PUdrXari0sh1zzDE9z+9H5WvLjYM7JxCfjmfBDDzVy/I+mJ2DHYcvy539gQXrC+p3RUrHjCudTV/j4jwIDo9W+ZYADc+llo0781EWhwziLzpm2NjS0zI8sIvA55577na1GPgVXmWLuNm8GQvWgs1p+zMJTFSXCq+yRVg2j3W1CJYeijtxHo36caA9ftz7o3LnMe5JJ53UPjyAO//xRl9VHDdH4T2uBatKzukp/9SEz3EefPDB7ct4szl1NdPYwJUXCOF+0EEHtcspZ4pZlZ8I1n19ugrWxBYvmZzNuEwEOxFszxTUbIpvFF8TwU4EOxHsKGfOpMz//nL7WGiDSQ876WEfMz3sww8/PPN52MfCWTnh+PjovR955JGJYCdifuyI+dFHH23+H79VsNM2E426AAAAAElFTkSuQmCC;" vertex="1" parent="1">
          <mxGeometry x="600" y="189.44" width="62" height="60.56" as="geometry" />
        </mxCell>
      </root>
    </mxGraphModel>
  </diagram>
</mxfile>
